<svg class="main-svg" xmlns="http://www.w3.org/2000/svg" xmlns:xlink="http://www.w3.org/1999/xlink" width="700" height="500" style="" viewBox="0 0 700 500"><rect x="0" y="0" width="700" height="500" style="fill: rgb(255, 255, 255); fill-opacity: 1;"/><defs id="defs-21afde"><g class="clips"><clipPath id="clip21afdexyplot" class="plotclip"><rect width="540" height="292"/></clipPath><clipPath class="axesclip" id="clip21afdex"><rect x="80" y="0" width="540" height="500"/></clipPath><clipPath class="axesclip" id="clip21afdey"><rect x="0" y="100" width="700" height="292"/></clipPath><clipPath class="axesclip" id="clip21afdexy"><rect x="80" y="100" width="540" height="292"/></clipPath></g><g class="gradients"/><g class="patterns"/></defs><g class="bglayer"><rect class="bg" x="80" y="100" width="540" height="292" style="fill: rgb(229, 236, 246); fill-opacity: 1; stroke-width: 0;"/></g><g class="layer-below"><g class="imagelayer"/><g class="shapelayer"/></g><g class="cartesianlayer"><g class="subplot xy"><g class="layer-subplot"><g class="shapelayer"/><g class="imagelayer"/></g><g class="minor-gridlayer"><g class="x"/><g class="y"/></g><g class="gridlayer"><g class="x"><path class="xgrid crisp" transform="translate(94.21000000000001,0)" d="M0,100v292" style="stroke: rgb(255, 255, 255); stroke-opacity: 1; stroke-width: 1px;"/><path class="xgrid crisp" transform="translate(108.42,0)" d="M0,100v292" style="stroke: rgb(255, 255, 255); stroke-opacity: 1; stroke-width: 1px;"/><path class="xgrid crisp" transform="translate(122.63,0)" d="M0,100v292" style="stroke: rgb(255, 255, 255); stroke-opacity: 1; stroke-width: 1px;"/><path class="xgrid crisp" transform="translate(136.84,0)" d="M0,100v292" style="stroke: rgb(255, 255, 255); stroke-opacity: 1; stroke-width: 1px;"/><path class="xgrid crisp" transform="translate(151.05,0)" d="M0,100v292" style="stroke: rgb(255, 255, 255); stroke-opacity: 1; stroke-width: 1px;"/><path class="xgrid crisp" transform="translate(165.26,0)" d="M0,100v292" style="stroke: rgb(255, 255, 255); stroke-opacity: 1; stroke-width: 1px;"/><path class="xgrid crisp" transform="translate(179.47,0)" d="M0,100v292" style="stroke: rgb(255, 255, 255); stroke-opacity: 1; stroke-width: 1px;"/><path class="xgrid crisp" transform="translate(193.68,0)" d="M0,100v292" style="stroke: rgb(255, 255, 255); stroke-opacity: 1; stroke-width: 1px;"/><path class="xgrid crisp" transform="translate(207.89,0)" d="M0,100v292" style="stroke: rgb(255, 255, 255); stroke-opacity: 1; stroke-width: 1px;"/><path class="xgrid crisp" transform="translate(222.11,0)" d="M0,100v292" style="stroke: rgb(255, 255, 255); stroke-opacity: 1; stroke-width: 1px;"/><path class="xgrid crisp" transform="translate(236.32,0)" d="M0,100v292" style="stroke: rgb(255, 255, 255); stroke-opacity: 1; stroke-width: 1px;"/><path class="xgrid crisp" transform="translate(250.53,0)" d="M0,100v292" style="stroke: rgb(255, 255, 255); stroke-opacity: 1; stroke-width: 1px;"/><path class="xgrid crisp" transform="translate(264.74,0)" d="M0,100v292" style="stroke: rgb(255, 255, 255); stroke-opacity: 1; stroke-width: 1px;"/><path class="xgrid crisp" transform="translate(278.95,0)" d="M0,100v292" style="stroke: rgb(255, 255, 255); stroke-opacity: 1; stroke-width: 1px;"/><path class="xgrid crisp" transform="translate(293.15999999999997,0)" d="M0,100v292" style="stroke: rgb(255, 255, 255); stroke-opacity: 1; stroke-width: 1px;"/><path class="xgrid crisp" transform="translate(307.37,0)" d="M0,100v292" style="stroke: rgb(255, 255, 255); stroke-opacity: 1; stroke-width: 1px;"/><path class="xgrid crisp" transform="translate(321.58000000000004,0)" d="M0,100v292" style="stroke: rgb(255, 255, 255); stroke-opacity: 1; stroke-width: 1px;"/><path class="xgrid crisp" transform="translate(335.78999999999996,0)" d="M0,100v292" style="stroke: rgb(255, 255, 255); stroke-opacity: 1; stroke-width: 1px;"/><path class="xgrid crisp" transform="translate(350,0)" d="M0,100v292" style="stroke: rgb(255, 255, 255); stroke-opacity: 1; stroke-width: 1px;"/><path class="xgrid crisp" transform="translate(364.21,0)" d="M0,100v292" style="stroke: rgb(255, 255, 255); stroke-opacity: 1; stroke-width: 1px;"/><path class="xgrid crisp" transform="translate(378.42,0)" d="M0,100v292" style="stroke: rgb(255, 255, 255); stroke-opacity: 1; stroke-width: 1px;"/><path class="xgrid crisp" transform="translate(392.63,0)" d="M0,100v292" style="stroke: rgb(255, 255, 255); stroke-opacity: 1; stroke-width: 1px;"/><path class="xgrid crisp" transform="translate(406.84,0)" d="M0,100v292" style="stroke: rgb(255, 255, 255); stroke-opacity: 1; stroke-width: 1px;"/><path class="xgrid crisp" transform="translate(421.05,0)" d="M0,100v292" style="stroke: rgb(255, 255, 255); stroke-opacity: 1; stroke-width: 1px;"/><path class="xgrid crisp" transform="translate(435.26,0)" d="M0,100v292" style="stroke: rgb(255, 255, 255); stroke-opacity: 1; stroke-width: 1px;"/><path class="xgrid crisp" transform="translate(449.47,0)" d="M0,100v292" style="stroke: rgb(255, 255, 255); stroke-opacity: 1; stroke-width: 1px;"/><path class="xgrid crisp" transform="translate(463.68,0)" d="M0,100v292" style="stroke: rgb(255, 255, 255); stroke-opacity: 1; stroke-width: 1px;"/><path class="xgrid crisp" transform="translate(477.89,0)" d="M0,100v292" style="stroke: rgb(255, 255, 255); stroke-opacity: 1; stroke-width: 1px;"/><path class="xgrid crisp" transform="translate(492.11,0)" d="M0,100v292" style="stroke: rgb(255, 255, 255); stroke-opacity: 1; stroke-width: 1px;"/><path class="xgrid crisp" transform="translate(506.32,0)" d="M0,100v292" style="stroke: rgb(255, 255, 255); stroke-opacity: 1; stroke-width: 1px;"/><path class="xgrid crisp" transform="translate(520.53,0)" d="M0,100v292" style="stroke: rgb(255, 255, 255); stroke-opacity: 1; stroke-width: 1px;"/><path class="xgrid crisp" transform="translate(534.74,0)" d="M0,100v292" style="stroke: rgb(255, 255, 255); stroke-opacity: 1; stroke-width: 1px;"/><path class="xgrid crisp" transform="translate(548.95,0)" d="M0,100v292" style="stroke: rgb(255, 255, 255); stroke-opacity: 1; stroke-width: 1px;"/><path class="xgrid crisp" transform="translate(563.1600000000001,0)" d="M0,100v292" style="stroke: rgb(255, 255, 255); stroke-opacity: 1; stroke-width: 1px;"/><path class="xgrid crisp" transform="translate(577.37,0)" d="M0,100v292" style="stroke: rgb(255, 255, 255); stroke-opacity: 1; stroke-width: 1px;"/><path class="xgrid crisp" transform="translate(591.5799999999999,0)" d="M0,100v292" style="stroke: rgb(255, 255, 255); stroke-opacity: 1; stroke-width: 1px;"/><path class="xgrid crisp" transform="translate(605.79,0)" d="M0,100v292" style="stroke: rgb(255, 255, 255); stroke-opacity: 1; stroke-width: 1px;"/></g><g class="y"><path class="ygrid crisp" transform="translate(0,328.43)" d="M80,0h540" style="stroke: rgb(255, 255, 255); stroke-opacity: 1; stroke-width: 1px;"/><path class="ygrid crisp" transform="translate(0,274.02)" d="M80,0h540" style="stroke: rgb(255, 255, 255); stroke-opacity: 1; stroke-width: 1px;"/><path class="ygrid crisp" transform="translate(0,219.61)" d="M80,0h540" style="stroke: rgb(255, 255, 255); stroke-opacity: 1; stroke-width: 1px;"/><path class="ygrid crisp" transform="translate(0,165.2)" d="M80,0h540" style="stroke: rgb(255, 255, 255); stroke-opacity: 1; stroke-width: 1px;"/><path class="ygrid crisp" transform="translate(0,110.78999999999999)" d="M80,0h540" style="stroke: rgb(255, 255, 255); stroke-opacity: 1; stroke-width: 1px;"/></g></g><g class="zerolinelayer"><path class="yzl zl crisp" transform="translate(0,382.84)" d="M80,0h540" style="stroke: rgb(255, 255, 255); stroke-opacity: 1; stroke-width: 2px;"/></g><g class="layer-between"><g class="shapelayer"/><g class="imagelayer"/></g><path class="xlines-below"/><path class="ylines-below"/><g class="overlines-below"/><g class="xaxislayer-below"/><g class="yaxislayer-below"/><g class="overaxes-below"/><g class="overplot"><g class="xy" transform="translate(80,100)" clip-path="url(#clip21afdexyplot)"><g class="scatterlayer mlayer"><g class="trace scatter tracefce43d" style="stroke-miterlimit: 2; opacity: 1;"><g class="fills"/><g class="errorbars"/><g class="lines"><path class="js-line" d="M0,151.17L3.55,199.05L7.11,76.63L10.66,178.37L14.21,91.32L17.76,226.25L21.32,174.02L24.87,84.24L28.42,239.31L31.97,94.58L35.53,110.36L39.08,38.54L42.63,141.38L46.18,113.08L49.74,154.43L53.29,254L56.84,96.76L60.39,150.62L63.95,145.73L67.5,101.66L71.05,188.71L74.61,156.61L78.16,203.4L81.71,168.58L85.26,165.86L92.37,255.64L95.92,257.81L99.47,186.54L103.03,183.27L106.58,189.8L110.13,180.55L113.68,14.6L117.24,246.93L120.79,151.17L124.34,174.02L127.89,133.21L131.45,174.02L135,148.45L138.55,135.39L142.11,148.99L145.66,252.37L149.21,152.8L152.76,148.45L156.32,225.71L159.87,171.84L163.42,193.61L166.97,234.42L174.08,156.61L177.63,145.73L181.18,72.82L184.74,151.17L188.29,115.26L191.84,195.24L195.39,258.36L198.95,194.7L206.05,153.35L209.61,262.71L216.71,147.9L220.26,243.12L223.82,89.69L227.37,168.58L230.92,237.68L234.47,107.1L238.03,129.4L241.58,229.52L245.13,151.71L248.68,122.88L252.24,180.55L255.79,219.18L259.34,190.34L262.89,183.81L266.45,180.55L270,172.39L273.55,277.4L277.11,237.14L280.66,120.16L284.21,29.29L287.76,146.82L291.32,233.87L294.87,187.62L298.42,245.3L301.97,214.28L305.53,211.56L309.08,243.67L312.63,200.14L316.18,165.32L319.74,249.11L323.29,118.52L326.84,252.37L330.39,175.11L333.95,187.08L337.5,166.4L341.05,234.42L344.61,138.11L348.16,169.12L351.71,187.62L355.26,243.67L358.82,60.85L362.37,253.46L365.92,215.92L369.47,236.59L373.03,172.39L376.58,237.68L383.68,166.95L387.24,165.86L390.79,131.58L394.34,116.89L397.89,150.08L401.45,202.31L405,181.09L408.55,104.38L415.66,220.27L419.21,178.92L422.76,160.96L426.32,117.43L429.87,170.76L433.42,152.26L440.53,233.33L444.08,168.04L447.63,226.8L451.18,67.92L458.29,251.28L461.84,165.32L465.39,102.2L468.95,235.5L472.5,140.83L476.05,128.32L479.61,86.97L483.16,208.84L490.26,80.98L493.82,273.59L497.37,184.9L500.92,46.16L504.47,137.57L508.03,120.7L511.58,189.8L515.13,178.92L518.68,175.65L522.24,263.25L525.79,182.73L529.34,235.5L536.45,176.74L540,243.12" style="vector-effect: none; fill: none; stroke: rgb(255, 87, 51); stroke-opacity: 1; stroke-width: 2px; opacity: 1;"/></g><g class="points"/><g class="text"/></g></g></g></g><path class="xlines-above crisp" d="M0,0" style="fill: none;"/><path class="ylines-above crisp" d="M0,0" style="fill: none;"/><g class="overlines-above"/><g class="xaxislayer-above"><g class="xtick"><text text-anchor="start" x="0" y="405" transform="translate(80,0) rotate(90,0,399)" style="font-family: Georgia; font-size: 12px; fill: rgb(42, 63, 95); fill-opacity: 1; white-space: pre; opacity: 1;">8/6/2024</text></g><g class="xtick"><text text-anchor="start" x="0" y="405" transform="translate(94.21000000000001,0) rotate(90,0,399)" style="font-family: Georgia; font-size: 12px; fill: rgb(42, 63, 95); fill-opacity: 1; white-space: pre; opacity: 1;">9/12/2024</text></g><g class="xtick"><text text-anchor="start" x="0" y="405" transform="translate(108.42,0) rotate(90,0,399)" style="font-family: Georgia; font-size: 12px; fill: rgb(42, 63, 95); fill-opacity: 1; white-space: pre; opacity: 1;">6/15/2024</text></g><g class="xtick"><text text-anchor="start" x="0" y="405" transform="translate(122.63,0) rotate(90,0,399)" style="font-family: Georgia; font-size: 12px; fill: rgb(42, 63, 95); fill-opacity: 1; white-space: pre; opacity: 1;">6/26/2024</text></g><g class="xtick"><text text-anchor="start" x="0" y="405" transform="translate(136.84,0) rotate(90,0,399)" style="font-family: Georgia; font-size: 12px; fill: rgb(42, 63, 95); fill-opacity: 1; white-space: pre; opacity: 1;">8/21/2024</text></g><g class="xtick"><text text-anchor="start" x="0" y="405" transform="translate(151.05,0) rotate(90,0,399)" style="font-family: Georgia; font-size: 12px; fill: rgb(42, 63, 95); fill-opacity: 1; white-space: pre; opacity: 1;">7/18/2024</text></g><g class="xtick"><text text-anchor="start" x="0" y="405" transform="translate(165.26,0) rotate(90,0,399)" style="font-family: Georgia; font-size: 12px; fill: rgb(42, 63, 95); fill-opacity: 1; white-space: pre; opacity: 1;">7/22/2024</text></g><g class="xtick"><text text-anchor="start" x="0" y="405" transform="translate(179.47,0) rotate(90,0,399)" style="font-family: Georgia; font-size: 12px; fill: rgb(42, 63, 95); fill-opacity: 1; white-space: pre; opacity: 1;">5/7/2024</text></g><g class="xtick"><text text-anchor="start" x="0" y="405" transform="translate(193.68,0) rotate(90,0,399)" style="font-family: Georgia; font-size: 12px; fill: rgb(42, 63, 95); fill-opacity: 1; white-space: pre; opacity: 1;">9/4/2024</text></g><g class="xtick"><text text-anchor="start" x="0" y="405" transform="translate(207.89,0) rotate(90,0,399)" style="font-family: Georgia; font-size: 12px; fill: rgb(42, 63, 95); fill-opacity: 1; white-space: pre; opacity: 1;">9/13/2024</text></g><g class="xtick"><text text-anchor="start" x="0" y="405" transform="translate(222.11,0) rotate(90,0,399)" style="font-family: Georgia; font-size: 12px; fill: rgb(42, 63, 95); fill-opacity: 1; white-space: pre; opacity: 1;">5/10/2024</text></g><g class="xtick"><text text-anchor="start" x="0" y="405" transform="translate(236.32,0) rotate(90,0,399)" style="font-family: Georgia; font-size: 12px; fill: rgb(42, 63, 95); fill-opacity: 1; white-space: pre; opacity: 1;">6/29/2024</text></g><g class="xtick"><text text-anchor="start" x="0" y="405" transform="translate(250.53,0) rotate(90,0,399)" style="font-family: Georgia; font-size: 12px; fill: rgb(42, 63, 95); fill-opacity: 1; white-space: pre; opacity: 1;">8/26/2024</text></g><g class="xtick"><text text-anchor="start" x="0" y="405" transform="translate(264.74,0) rotate(90,0,399)" style="font-family: Georgia; font-size: 12px; fill: rgb(42, 63, 95); fill-opacity: 1; white-space: pre; opacity: 1;">6/20/2024</text></g><g class="xtick"><text text-anchor="start" x="0" y="405" transform="translate(278.95,0) rotate(90,0,399)" style="font-family: Georgia; font-size: 12px; fill: rgb(42, 63, 95); fill-opacity: 1; white-space: pre; opacity: 1;">7/15/2024</text></g><g class="xtick"><text text-anchor="start" x="0" y="405" transform="translate(293.15999999999997,0) rotate(90,0,399)" style="font-family: Georgia; font-size: 12px; fill: rgb(42, 63, 95); fill-opacity: 1; white-space: pre; opacity: 1;">5/23/2024</text></g><g class="xtick"><text text-anchor="start" x="0" y="405" transform="translate(307.37,0) rotate(90,0,399)" style="font-family: Georgia; font-size: 12px; fill: rgb(42, 63, 95); fill-opacity: 1; white-space: pre; opacity: 1;">6/6/2024</text></g><g class="xtick"><text text-anchor="start" x="0" y="405" transform="translate(321.58000000000004,0) rotate(90,0,399)" style="font-family: Georgia; font-size: 12px; fill: rgb(42, 63, 95); fill-opacity: 1; white-space: pre; opacity: 1;">8/31/2024</text></g><g class="xtick"><text text-anchor="start" x="0" y="405" transform="translate(335.78999999999996,0) rotate(90,0,399)" style="font-family: Georgia; font-size: 12px; fill: rgb(42, 63, 95); fill-opacity: 1; white-space: pre; opacity: 1;">5/14/2024</text></g><g class="xtick"><text text-anchor="start" x="0" y="405" transform="translate(350,0) rotate(90,0,399)" style="font-family: Georgia; font-size: 12px; fill: rgb(42, 63, 95); fill-opacity: 1; white-space: pre; opacity: 1;">6/1/2024</text></g><g class="xtick"><text text-anchor="start" x="0" y="405" transform="translate(364.21,0) rotate(90,0,399)" style="font-family: Georgia; font-size: 12px; fill: rgb(42, 63, 95); fill-opacity: 1; white-space: pre; opacity: 1;">9/26/2024</text></g><g class="xtick"><text text-anchor="start" x="0" y="405" transform="translate(378.42,0) rotate(90,0,399)" style="font-family: Georgia; font-size: 12px; fill: rgb(42, 63, 95); fill-opacity: 1; white-space: pre; opacity: 1;">7/28/2024</text></g><g class="xtick"><text text-anchor="start" x="0" y="405" transform="translate(392.63,0) rotate(90,0,399)" style="font-family: Georgia; font-size: 12px; fill: rgb(42, 63, 95); fill-opacity: 1; white-space: pre; opacity: 1;">9/29/2024</text></g><g class="xtick"><text text-anchor="start" x="0" y="405" transform="translate(406.84,0) rotate(90,0,399)" style="font-family: Georgia; font-size: 12px; fill: rgb(42, 63, 95); fill-opacity: 1; white-space: pre; opacity: 1;">9/15/2024</text></g><g class="xtick"><text text-anchor="start" x="0" y="405" transform="translate(421.05,0) rotate(90,0,399)" style="font-family: Georgia; font-size: 12px; fill: rgb(42, 63, 95); fill-opacity: 1; white-space: pre; opacity: 1;">6/3/2024</text></g><g class="xtick"><text text-anchor="start" x="0" y="405" transform="translate(435.26,0) rotate(90,0,399)" style="font-family: Georgia; font-size: 12px; fill: rgb(42, 63, 95); fill-opacity: 1; white-space: pre; opacity: 1;">7/4/2024</text></g><g class="xtick"><text text-anchor="start" x="0" y="405" transform="translate(449.47,0) rotate(90,0,399)" style="font-family: Georgia; font-size: 12px; fill: rgb(42, 63, 95); fill-opacity: 1; white-space: pre; opacity: 1;">9/22/2024</text></g><g class="xtick"><text text-anchor="start" x="0" y="405" transform="translate(463.68,0) rotate(90,0,399)" style="font-family: Georgia; font-size: 12px; fill: rgb(42, 63, 95); fill-opacity: 1; white-space: pre; opacity: 1;">9/23/2024</text></g><g class="xtick"><text text-anchor="start" x="0" y="405" transform="translate(477.89,0) rotate(90,0,399)" style="font-family: Georgia; font-size: 12px; fill: rgb(42, 63, 95); fill-opacity: 1; white-space: pre; opacity: 1;">9/3/2024</text></g><g class="xtick"><text text-anchor="start" x="0" y="405" transform="translate(492.11,0) rotate(90,0,399)" style="font-family: Georgia; font-size: 12px; fill: rgb(42, 63, 95); fill-opacity: 1; white-space: pre; opacity: 1;">5/30/2024</text></g><g class="xtick"><text text-anchor="start" x="0" y="405" transform="translate(506.32,0) rotate(90,0,399)" style="font-family: Georgia; font-size: 12px; fill: rgb(42, 63, 95); fill-opacity: 1; white-space: pre; opacity: 1;">6/14/2024</text></g><g class="xtick"><text text-anchor="start" x="0" y="405" transform="translate(520.53,0) rotate(90,0,399)" style="font-family: Georgia; font-size: 12px; fill: rgb(42, 63, 95); fill-opacity: 1; white-space: pre; opacity: 1;">9/14/2024</text></g><g class="xtick"><text text-anchor="start" x="0" y="405" transform="translate(534.74,0) rotate(90,0,399)" style="font-family: Georgia; font-size: 12px; fill: rgb(42, 63, 95); fill-opacity: 1; white-space: pre; opacity: 1;">7/26/2024</text></g><g class="xtick"><text text-anchor="start" x="0" y="405" transform="translate(548.95,0) rotate(90,0,399)" style="font-family: Georgia; font-size: 12px; fill: rgb(42, 63, 95); fill-opacity: 1; white-space: pre; opacity: 1;">7/6/2024</text></g><g class="xtick"><text text-anchor="start" x="0" y="405" transform="translate(563.1600000000001,0) rotate(90,0,399)" style="font-family: Georgia; font-size: 12px; fill: rgb(42, 63, 95); fill-opacity: 1; white-space: pre; opacity: 1;">8/24/2024</text></g><g class="xtick"><text text-anchor="start" x="0" y="405" transform="translate(577.37,0) rotate(90,0,399)" style="font-family: Georgia; font-size: 12px; fill: rgb(42, 63, 95); fill-opacity: 1; white-space: pre; opacity: 1;">7/8/2024</text></g><g class="xtick"><text text-anchor="start" x="0" y="405" transform="translate(591.5799999999999,0) rotate(90,0,399)" style="font-family: Georgia; font-size: 12px; fill: rgb(42, 63, 95); fill-opacity: 1; white-space: pre; opacity: 1;">6/19/2024</text></g><g class="xtick"><text text-anchor="start" x="0" y="405" transform="translate(605.79,0) rotate(90,0,399)" style="font-family: Georgia; font-size: 12px; fill: rgb(42, 63, 95); fill-opacity: 1; white-space: pre; opacity: 1;">7/3/2024</text></g><g class="xtick"><text text-anchor="start" x="0" y="405" transform="translate(620,0) rotate(90,0,399)" style="font-family: Georgia; font-size: 12px; fill: rgb(42, 63, 95); fill-opacity: 1; white-space: pre; opacity: 1;">5/5/2024</text></g></g><g class="yaxislayer-above"><g class="ytick"><text text-anchor="end" x="79" y="4.199999999999999" transform="translate(0,382.84)" style="font-family: Georgia; font-size: 12px; fill: rgb(42, 63, 95); fill-opacity: 1; white-space: pre; opacity: 1;">0</text></g><g class="ytick"><text text-anchor="end" x="79" y="4.199999999999999" style="font-family: Georgia; font-size: 12px; fill: rgb(42, 63, 95); fill-opacity: 1; white-space: pre; opacity: 1;" transform="translate(0,328.43)">100</text></g><g class="ytick"><text text-anchor="end" x="79" y="4.199999999999999" style="font-family: Georgia; font-size: 12px; fill: rgb(42, 63, 95); fill-opacity: 1; white-space: pre; opacity: 1;" transform="translate(0,274.02)">200</text></g><g class="ytick"><text text-anchor="end" x="79" y="4.199999999999999" style="font-family: Georgia; font-size: 12px; fill: rgb(42, 63, 95); fill-opacity: 1; white-space: pre; opacity: 1;" transform="translate(0,219.61)">300</text></g><g class="ytick"><text text-anchor="end" x="79" y="4.199999999999999" style="font-family: Georgia; font-size: 12px; fill: rgb(42, 63, 95); fill-opacity: 1; white-space: pre; opacity: 1;" transform="translate(0,165.2)">400</text></g><g class="ytick"><text text-anchor="end" x="79" y="4.199999999999999" style="font-family: Georgia; font-size: 12px; fill: rgb(42, 63, 95); fill-opacity: 1; white-space: pre; opacity: 1;" transform="translate(0,110.78999999999999)">500</text></g></g><g class="overaxes-above"/></g></g><g class="polarlayer"/><g class="smithlayer"/><g class="ternarylayer"/><g class="geolayer"/><g class="funnelarealayer"/><g class="pielayer"/><g class="iciclelayer"/><g class="treemaplayer"/><g class="sunburstlayer"/><g class="glimages"/><defs id="topdefs-21afde"><g class="clips"/></defs><g class="layer-above"><g class="imagelayer"/><g class="shapelayer"/></g><g class="infolayer"><g class="g-gtitle"><text class="gtitle" x="35" y="50" text-anchor="start" dy="0em" style="opacity: 1; font-family: Roboto; font-size: 24px; fill: rgb(0, 0, 139); fill-opacity: 1; white-space: pre;">Job Posting Trends Over Time</text></g><g class="g-xtitle"><text class="xtitle" x="350" y="487.3" text-anchor="middle" style="opacity: 1; font-family: Georgia; font-size: 14px; fill: rgb(42, 63, 95); fill-opacity: 1; white-space: pre;">Posted Date</text></g><g class="g-ytitle"><text class="ytitle" transform="rotate(-90,35.6,246)" x="35.6" y="246" text-anchor="middle" style="opacity: 1; font-family: Georgia; font-size: 14px; fill: rgb(42, 63, 95); fill-opacity: 1; white-space: pre;">Number of Job Postings</text></g></g></svg>