<svg class="main-svg" xmlns="http://www.w3.org/2000/svg" xmlns:xlink="http://www.w3.org/1999/xlink" width="700" height="500" style="" viewBox="0 0 700 500"><rect x="0" y="0" width="700" height="500" style="fill: rgb(255, 255, 255); fill-opacity: 1;"/><defs id="defs-750b25"><g class="clips"><clipPath id="clip750b25xyplot" class="plotclip"><rect width="540" height="64"/></clipPath><clipPath class="axesclip" id="clip750b25x"><rect x="80" y="0" width="540" height="500"/></clipPath><clipPath class="axesclip" id="clip750b25y"><rect x="0" y="80" width="700" height="64"/></clipPath><clipPath class="axesclip" id="clip750b25xy"><rect x="80" y="80" width="540" height="64"/></clipPath></g><g class="gradients"/><g class="patterns"/></defs><g class="bglayer"><rect class="bg" x="80" y="80" width="540" height="64" style="fill: rgb(229, 236, 246); fill-opacity: 1; stroke-width: 0;"/></g><g class="layer-below"><g class="imagelayer"/><g class="shapelayer"/></g><g class="cartesianlayer"><g class="subplot xy"><g class="layer-subplot"><g class="shapelayer"/><g class="imagelayer"/></g><g class="minor-gridlayer"><g class="x"/><g class="y"/></g><g class="gridlayer"><g class="x"/><g class="y"><path class="ygrid crisp" transform="translate(0,126.03)" d="M80,0h540" style="stroke: rgb(255, 255, 255); stroke-opacity: 1; stroke-width: 1px;"/><path class="ygrid crisp" transform="translate(0,101.11)" d="M80,0h540" style="stroke: rgb(255, 255, 255); stroke-opacity: 1; stroke-width: 1px;"/></g></g><g class="zerolinelayer"/><g class="layer-between"><g class="shapelayer"/><g class="imagelayer"/></g><path class="xlines-below"/><path class="ylines-below"/><g class="overlines-below"/><g class="xaxislayer-below"/><g class="yaxislayer-below"/><g class="overaxes-below"/><g class="overplot"><g class="xy" transform="translate(80,80)" clip-path="url(#clip750b25xyplot)"><g class="boxlayer mlayer"><g class="trace boxes" style="opacity: 1;"><path class="box" d="M6.56,28.72H19.16M6.56,28.72H19.16V28.72H6.56ZM12.86,28.72V28.72M12.86,28.72V28.72M9.71,28.72H16.01M9.71,28.72H16.01" style="vector-effect: none; stroke-width: 2px; stroke: rgb(255, 87, 51); stroke-opacity: 1; fill: rgb(255, 87, 51); fill-opacity: 0.5;"/><path class="box" d="M32.27,57.9H44.87M32.27,57.9H44.87V57.9H32.27ZM38.57,57.9V57.9M38.57,57.9V57.9M35.42,57.9H41.72M35.42,57.9H41.72" style="vector-effect: none; stroke-width: 2px; stroke: rgb(255, 87, 51); stroke-opacity: 1; fill: rgb(255, 87, 51); fill-opacity: 0.5;"/><path class="box" d="M57.99,45.21H70.59M57.99,45.21H70.59V45.21H57.99ZM64.29,45.21V45.21M64.29,45.21V45.21M61.14,45.21H67.44M61.14,45.21H67.44" style="vector-effect: none; stroke-width: 2px; stroke: rgb(255, 87, 51); stroke-opacity: 1; fill: rgb(255, 87, 51); fill-opacity: 0.5;"/><path class="box" d="M83.7,4.53H96.3M83.7,4.53H96.3V4.53H83.7ZM90,4.53V4.53M90,4.53V4.53M86.85,4.53H93.15M86.85,4.53H93.15" style="vector-effect: none; stroke-width: 2px; stroke: rgb(255, 87, 51); stroke-opacity: 1; fill: rgb(255, 87, 51); fill-opacity: 0.5;"/><path class="box" d="M109.41,26.36H122.01M109.41,26.36H122.01V26.36H109.41ZM115.71,26.36V26.36M115.71,26.36V26.36M112.56,26.36H118.86M112.56,26.36H118.86" style="vector-effect: none; stroke-width: 2px; stroke: rgb(255, 87, 51); stroke-opacity: 1; fill: rgb(255, 87, 51); fill-opacity: 0.5;"/><path class="box" d="M135.13,3.2H147.73M135.13,3.2H147.73V3.2H135.13ZM141.43,3.2V3.2M141.43,3.2V3.2M138.28,3.2H144.58M138.28,3.2H144.58" style="vector-effect: none; stroke-width: 2px; stroke: rgb(255, 87, 51); stroke-opacity: 1; fill: rgb(255, 87, 51); fill-opacity: 0.5;"/><path class="box" d="M160.84,27.84H173.44M160.84,27.84H173.44V27.84H160.84ZM167.14,27.84V27.84M167.14,27.84V27.84M163.99,27.84H170.29M163.99,27.84H170.29" style="vector-effect: none; stroke-width: 2px; stroke: rgb(255, 87, 51); stroke-opacity: 1; fill: rgb(255, 87, 51); fill-opacity: 0.5;"/><path class="box" d="M186.56,23.17H199.16M186.56,23.17H199.16V23.17H186.56ZM192.86,23.17V23.17M192.86,23.17V23.17M189.71,23.17H196.01M189.71,23.17H196.01" style="vector-effect: none; stroke-width: 2px; stroke: rgb(255, 87, 51); stroke-opacity: 1; fill: rgb(255, 87, 51); fill-opacity: 0.5;"/><path class="box" d="M212.27,23.06H224.87M212.27,23.06H224.87V23.06H212.27ZM218.57,23.06V23.06M218.57,23.06V23.06M215.42,23.06H221.72M215.42,23.06H221.72" style="vector-effect: none; stroke-width: 2px; stroke: rgb(255, 87, 51); stroke-opacity: 1; fill: rgb(255, 87, 51); fill-opacity: 0.5;"/><path class="box" d="M237.99,34.5H250.59M237.99,34.5H250.59V34.5H237.99ZM244.29,34.5V34.5M244.29,34.5V34.5M241.14,34.5H247.44M241.14,34.5H247.44" style="vector-effect: none; stroke-width: 2px; stroke: rgb(255, 87, 51); stroke-opacity: 1; fill: rgb(255, 87, 51); fill-opacity: 0.5;"/><path class="box" d="M263.7,19.67H276.3M263.7,19.67H276.3V19.67H263.7ZM270,19.67V19.67M270,19.67V19.67M266.85,19.67H273.15M266.85,19.67H273.15" style="vector-effect: none; stroke-width: 2px; stroke: rgb(255, 87, 51); stroke-opacity: 1; fill: rgb(255, 87, 51); fill-opacity: 0.5;"/><path class="box" d="M289.41,49.04H302.01M289.41,49.04H302.01V49.04H289.41ZM295.71,49.04V49.04M295.71,49.04V49.04M292.56,49.04H298.86M292.56,49.04H298.86" style="vector-effect: none; stroke-width: 2px; stroke: rgb(255, 87, 51); stroke-opacity: 1; fill: rgb(255, 87, 51); fill-opacity: 0.5;"/><path class="box" d="M315.13,47.23H327.73M315.13,47.23H327.73V47.23H315.13ZM321.43,47.23V47.23M321.43,47.23V47.23M318.28,47.23H324.58M318.28,47.23H324.58" style="vector-effect: none; stroke-width: 2px; stroke: rgb(255, 87, 51); stroke-opacity: 1; fill: rgb(255, 87, 51); fill-opacity: 0.5;"/><path class="box" d="M340.84,35.83H353.44M340.84,35.83H353.44V35.83H340.84ZM347.14,35.83V35.83M347.14,35.83V35.83M343.99,35.83H350.29M343.99,35.83H350.29" style="vector-effect: none; stroke-width: 2px; stroke: rgb(255, 87, 51); stroke-opacity: 1; fill: rgb(255, 87, 51); fill-opacity: 0.5;"/><path class="box" d="M366.56,33.38H379.16M366.56,33.38H379.16V33.38H366.56ZM372.86,33.38V33.38M372.86,33.38V33.38M369.71,33.38H376.01M369.71,33.38H376.01" style="vector-effect: none; stroke-width: 2px; stroke: rgb(255, 87, 51); stroke-opacity: 1; fill: rgb(255, 87, 51); fill-opacity: 0.5;"/><path class="box" d="M392.27,45.68H404.87M392.27,45.68H404.87V45.68H392.27ZM398.57,45.68V45.68M398.57,45.68V45.68M395.42,45.68H401.72M395.42,45.68H401.72" style="vector-effect: none; stroke-width: 2px; stroke: rgb(255, 87, 51); stroke-opacity: 1; fill: rgb(255, 87, 51); fill-opacity: 0.5;"/><path class="box" d="M417.99,19.88H430.59M417.99,19.88H430.59V19.88H417.99ZM424.29,19.88V19.88M424.29,19.88V19.88M421.14,19.88H427.44M421.14,19.88H427.44" style="vector-effect: none; stroke-width: 2px; stroke: rgb(255, 87, 51); stroke-opacity: 1; fill: rgb(255, 87, 51); fill-opacity: 0.5;"/><path class="box" d="M443.7,33.77H456.3M443.7,33.77H456.3V33.77H443.7ZM450,33.77V33.77M450,33.77V33.77M446.85,33.77H453.15M446.85,33.77H453.15" style="vector-effect: none; stroke-width: 2px; stroke: rgb(255, 87, 51); stroke-opacity: 1; fill: rgb(255, 87, 51); fill-opacity: 0.5;"/><path class="box" d="M469.41,60.8H482.01M469.41,60.8H482.01V60.8H469.41ZM475.71,60.8V60.8M475.71,60.8V60.8M472.56,60.8H478.86M472.56,60.8H478.86" style="vector-effect: none; stroke-width: 2px; stroke: rgb(255, 87, 51); stroke-opacity: 1; fill: rgb(255, 87, 51); fill-opacity: 0.5;"/><path class="box" d="M495.13,41.47H507.73M495.13,41.47H507.73V41.47H495.13ZM501.43,41.47V41.47M501.43,41.47V41.47M498.28,41.47H504.58M498.28,41.47H504.58" style="vector-effect: none; stroke-width: 2px; stroke: rgb(255, 87, 51); stroke-opacity: 1; fill: rgb(255, 87, 51); fill-opacity: 0.5;"/><path class="box" d="M520.84,25.52H533.44M520.84,25.52H533.44V25.52H520.84ZM527.14,25.52V25.52M527.14,25.52V25.52M523.99,25.52H530.29M523.99,25.52H530.29" style="vector-effect: none; stroke-width: 2px; stroke: rgb(255, 87, 51); stroke-opacity: 1; fill: rgb(255, 87, 51); fill-opacity: 0.5;"/><g class="points"/><g class="points"/><g class="points"/><g class="points"/><g class="points"/><g class="points"/><g class="points"/><g class="points"/><g class="points"/><g class="points"/><g class="points"/><g class="points"/><g class="points"/><g class="points"/><g class="points"/><g class="points"/><g class="points"/><g class="points"/><g class="points"/><g class="points"/><g class="points"/></g></g></g></g><path class="xlines-above crisp" d="M0,0" style="fill: none;"/><path class="ylines-above crisp" d="M0,0" style="fill: none;"/><g class="overlines-above"/><g class="xaxislayer-above"><g class="xtick"><text text-anchor="start" x="0" y="157" transform="translate(92.86,0) rotate(90,0,151)" style="font-family: Georgia; font-size: 12px; fill: rgb(42, 63, 95); fill-opacity: 1; white-space: pre; opacity: 1;">Administrative and Support and Waste Management and Remediation Services</text></g><g class="xtick"><text text-anchor="start" x="0" y="157" transform="translate(118.57,0) rotate(90,0,151)" style="font-family: Georgia; font-size: 12px; fill: rgb(42, 63, 95); fill-opacity: 1; white-space: pre; opacity: 1;">Public Administration</text></g><g class="xtick"><text text-anchor="start" x="0" y="157" transform="translate(144.29000000000002,0) rotate(90,0,151)" style="font-family: Georgia; font-size: 12px; fill: rgb(42, 63, 95); fill-opacity: 1; white-space: pre; opacity: 1;">Real Estate and Rental and Leasing</text></g><g class="xtick"><text text-anchor="start" x="0" y="157" transform="translate(170,0) rotate(90,0,151)" style="font-family: Georgia; font-size: 12px; fill: rgb(42, 63, 95); fill-opacity: 1; white-space: pre; opacity: 1;">Information</text></g><g class="xtick"><text text-anchor="start" x="0" y="157" transform="translate(195.70999999999998,0) rotate(90,0,151)" style="font-family: Georgia; font-size: 12px; fill: rgb(42, 63, 95); fill-opacity: 1; white-space: pre; opacity: 1;">Unclassified Industry</text></g><g class="xtick"><text text-anchor="start" x="0" y="157" transform="translate(221.43,0) rotate(90,0,151)" style="font-family: Georgia; font-size: 12px; fill: rgb(42, 63, 95); fill-opacity: 1; white-space: pre; opacity: 1;">Accommodation and Food Services</text></g><g class="xtick"><text text-anchor="start" x="0" y="157" transform="translate(247.14,0) rotate(90,0,151)" style="font-family: Georgia; font-size: 12px; fill: rgb(42, 63, 95); fill-opacity: 1; white-space: pre; opacity: 1;">Finance and Insurance</text></g><g class="xtick"><text text-anchor="start" x="0" y="157" transform="translate(272.86,0) rotate(90,0,151)" style="font-family: Georgia; font-size: 12px; fill: rgb(42, 63, 95); fill-opacity: 1; white-space: pre; opacity: 1;">Construction</text></g><g class="xtick"><text text-anchor="start" x="0" y="157" transform="translate(298.57,0) rotate(90,0,151)" style="font-family: Georgia; font-size: 12px; fill: rgb(42, 63, 95); fill-opacity: 1; white-space: pre; opacity: 1;">Utilities</text></g><g class="xtick"><text text-anchor="start" x="0" y="157" transform="translate(324.28999999999996,0) rotate(90,0,151)" style="font-family: Georgia; font-size: 12px; fill: rgb(42, 63, 95); fill-opacity: 1; white-space: pre; opacity: 1;">Management of Companies and Enterprises</text></g><g class="xtick"><text text-anchor="start" x="0" y="157" transform="translate(350,0) rotate(90,0,151)" style="font-family: Georgia; font-size: 12px; fill: rgb(42, 63, 95); fill-opacity: 1; white-space: pre; opacity: 1;">Professional, Scientific, and Technical Services</text></g><g class="xtick"><text text-anchor="start" x="0" y="157" transform="translate(375.71,0) rotate(90,0,151)" style="font-family: Georgia; font-size: 12px; fill: rgb(42, 63, 95); fill-opacity: 1; white-space: pre; opacity: 1;">Arts, Entertainment, and Recreation</text></g><g class="xtick"><text text-anchor="start" x="0" y="157" transform="translate(401.43,0) rotate(90,0,151)" style="font-family: Georgia; font-size: 12px; fill: rgb(42, 63, 95); fill-opacity: 1; white-space: pre; opacity: 1;">Other Services (except Public Administration)</text></g><g class="xtick"><text text-anchor="start" x="0" y="157" transform="translate(427.14,0) rotate(90,0,151)" style="font-family: Georgia; font-size: 12px; fill: rgb(42, 63, 95); fill-opacity: 1; white-space: pre; opacity: 1;">Transportation and Warehousing</text></g><g class="xtick"><text text-anchor="start" x="0" y="157" transform="translate(452.86,0) rotate(90,0,151)" style="font-family: Georgia; font-size: 12px; fill: rgb(42, 63, 95); fill-opacity: 1; white-space: pre; opacity: 1;">Wholesale Trade</text></g><g class="xtick"><text text-anchor="start" x="0" y="157" transform="translate(478.57,0) rotate(90,0,151)" style="font-family: Georgia; font-size: 12px; fill: rgb(42, 63, 95); fill-opacity: 1; white-space: pre; opacity: 1;">Agriculture, Forestry, Fishing and Hunting</text></g><g class="xtick"><text text-anchor="start" x="0" y="157" transform="translate(504.29,0) rotate(90,0,151)" style="font-family: Georgia; font-size: 12px; fill: rgb(42, 63, 95); fill-opacity: 1; white-space: pre; opacity: 1;">Manufacturing</text></g><g class="xtick"><text text-anchor="start" x="0" y="157" transform="translate(530,0) rotate(90,0,151)" style="font-family: Georgia; font-size: 12px; fill: rgb(42, 63, 95); fill-opacity: 1; white-space: pre; opacity: 1;">Mining, Quarrying, and Oil and Gas Extraction</text></g><g class="xtick"><text text-anchor="start" x="0" y="157" transform="translate(555.71,0) rotate(90,0,151)" style="font-family: Georgia; font-size: 12px; fill: rgb(42, 63, 95); fill-opacity: 1; white-space: pre; opacity: 1;">Educational Services</text></g><g class="xtick"><text text-anchor="start" x="0" y="157" transform="translate(581.4300000000001,0) rotate(90,0,151)" style="font-family: Georgia; font-size: 12px; fill: rgb(42, 63, 95); fill-opacity: 1; white-space: pre; opacity: 1;">Health Care and Social Assistance</text></g><g class="xtick"><text text-anchor="start" x="0" y="157" transform="translate(607.14,0) rotate(90,0,151)" style="font-family: Georgia; font-size: 12px; fill: rgb(42, 63, 95); fill-opacity: 1; white-space: pre; opacity: 1;">Retail Trade</text></g></g><g class="yaxislayer-above"><g class="ytick"><text text-anchor="end" x="79" y="4.199999999999999" transform="translate(0,126.03)" style="font-family: Georgia; font-size: 12px; fill: rgb(42, 63, 95); fill-opacity: 1; white-space: pre; opacity: 1;">80k</text></g><g class="ytick"><text text-anchor="end" x="79" y="4.199999999999999" style="font-family: Georgia; font-size: 12px; fill: rgb(42, 63, 95); fill-opacity: 1; white-space: pre; opacity: 1;" transform="translate(0,101.11)">100k</text></g></g><g class="overaxes-above"/></g></g><g class="polarlayer"/><g class="smithlayer"/><g class="ternarylayer"/><g class="geolayer"/><g class="funnelarealayer"/><g class="pielayer"/><g class="iciclelayer"/><g class="treemaplayer"/><g class="sunburstlayer"/><g class="glimages"/><defs id="topdefs-750b25"><g class="clips"/></defs><g class="layer-above"><g class="imagelayer"/><g class="shapelayer"/></g><g class="infolayer"><g class="g-gtitle"><text class="gtitle" x="35" y="40" text-anchor="start" dy="0em" style="opacity: 1; font-family: Roboto; font-size: 24px; fill: rgb(0, 0, 139); fill-opacity: 1; white-space: pre;">Salary Distribution by Industry</text></g><g class="g-xtitle" transform="translate(0,-154.29999999999995)"><text class="xtitle" x="350" y="651.3" text-anchor="middle" style="opacity: 1; font-family: Georgia; font-size: 14px; fill: rgb(42, 63, 95); fill-opacity: 1; white-space: pre;">NAICS2_NAME</text></g><g class="g-ytitle"><text class="ytitle" transform="rotate(-90,28.6,112)" x="28.6" y="112" text-anchor="middle" style="opacity: 1; font-family: Georgia; font-size: 14px; fill: rgb(42, 63, 95); fill-opacity: 1; white-space: pre;">avg_salary</text></g></g></svg>